<svg width="24" height="24" viewBox="0 0 24 24" fill="none" xmlns="http://www.w3.org/2000/svg">
<path d="M6.22903 17.4681C6.48803 17.7913 6.95951 17.8432 7.28274 17.5843C7.60594 17.3253 7.65792 16.8538 7.39896 16.5306L4.36868 12.7483L21.0894 12.7483L21.1665 12.7444C21.5445 12.7058 21.8394 12.3865 21.8394 11.9983C21.8394 11.6102 21.5445 11.2909 21.1665 11.2522L21.0894 11.2483L4.36966 11.2483L7.39896 7.46807L7.44388 7.40557C7.65024 7.08644 7.58569 6.65713 7.28274 6.41436C6.97972 6.17159 6.54626 6.20191 6.27982 6.47295L6.22903 6.53057L2.55716 11.1136C2.14241 11.6313 2.14241 12.3674 2.55716 12.8851L6.22903 17.4681Z" fill="black"/>
</svg>
