<svg width="25" height="24" viewBox="0 0 25 24" fill="none" xmlns="http://www.w3.org/2000/svg">
<path fill-rule="evenodd" clip-rule="evenodd" d="M6.875 4C5.56332 4 4.5 5.06332 4.5 6.37498V17.625C4.5 18.9367 5.56332 20 6.875 20H18.125C19.4367 20 20.5 18.9367 20.5 17.625L20.5 6.37498C20.5 5.06332 19.4367 4 18.125 4H6.875ZM2.5 6.37498C2.5 3.95874 4.45876 2 6.875 2H18.125C20.5412 2 22.5 3.95874 22.5 6.37498L22.5 17.625C22.5 20.0413 20.5412 22 18.125 22H6.875C4.45876 22 2.5 20.0413 2.5 17.625V6.37498ZM12.5 6.49997C13.0523 6.49997 13.5 6.94769 13.5 7.49997V11.9999C13.5 12.5522 13.0523 12.9999 12.5 12.9999C11.9477 12.9999 11.5 12.5522 11.5 11.9999V7.49997C11.5 6.94769 11.9477 6.49997 12.5 6.49997ZM12.5 14.3354C13.0523 14.3354 13.5 14.7831 13.5 15.3354V15.3749C13.5 15.9272 13.0523 16.3749 12.5 16.3749C11.9477 16.3749 11.5 15.9272 11.5 15.3749V15.3354C11.5 14.7831 11.9477 14.3354 12.5 14.3354Z" fill="white"/>
</svg>
