<svg width="109" height="108" viewBox="0 0 109 108" fill="none" xmlns="http://www.w3.org/2000/svg">
<path fill-rule="evenodd" clip-rule="evenodd" d="M45.9829 19.9203C44.7485 20.989 43.2698 22.1145 41.5789 22.8178C39.8753 23.5263 38.0351 23.7677 36.4153 23.8742C35.3547 23.9439 34.1713 23.9627 33.0927 23.9799C32.5809 23.9881 32.0926 23.9959 31.6523 24.0086C28.4081 24.1019 26.7566 24.5008 25.8787 25.3787C25.0057 26.2517 24.6229 27.8539 24.5405 31.0782C24.5299 31.4912 24.5237 31.9442 24.5171 32.4191C24.5018 33.5208 24.4848 34.7405 24.4092 35.8517C24.2975 37.4952 24.0422 39.3492 23.3146 41.0866C22.5946 42.8058 21.4686 44.2985 20.3879 45.5505C19.6506 46.4045 18.8 47.2924 18.0282 48.0981C17.6997 48.4409 17.3855 48.769 17.1003 49.0731C16.0576 50.1854 15.2518 51.1297 14.7036 52.019C14.1691 52.8862 14 53.5108 14 54C14 54.4846 14.1709 55.1195 14.7171 56.0074C15.2742 56.9129 16.0909 57.8749 17.1369 58.9954C17.4359 59.3157 17.7675 59.6629 18.1141 60.0257C18.8744 60.8215 19.7061 61.6921 20.4203 62.5171C21.489 63.7515 22.6145 65.2302 23.3178 66.9211C24.0263 68.6247 24.2677 70.4649 24.3742 72.0847C24.4439 73.1453 24.4627 74.3287 24.4799 75.4073C24.4881 75.9191 24.4959 76.4074 24.5086 76.8477C24.6019 80.0919 25.0008 81.7434 25.8787 82.6213C26.7517 83.4943 28.3539 83.8771 31.5782 83.9595C31.9912 83.9701 32.4442 83.9763 32.9192 83.9829C34.0209 83.9983 35.2406 84.0152 36.3517 84.0908C37.9952 84.2025 39.8492 84.4578 41.5866 85.1854C43.3058 85.9054 44.7985 87.0314 46.0505 88.1121C46.9045 88.8494 47.7923 89.7 48.598 90.4718C48.9409 90.8003 49.2689 91.1145 49.5731 91.3997C50.6854 92.4424 51.6297 93.2482 52.519 93.7964C53.3862 94.3309 54.0108 94.5 54.5 94.5C54.9846 94.5 55.6195 94.3291 56.5074 93.7829C57.4129 93.2258 58.3749 92.4091 59.4954 91.3632C59.8157 91.0641 60.1629 90.7325 60.5256 90.3859C61.3215 89.6256 62.1921 88.7939 63.0171 88.0797C64.2515 87.011 65.7302 85.8855 67.4211 85.1822C69.1247 84.4737 70.9649 84.2323 72.5847 84.1258C73.6453 84.0561 74.8286 84.0373 75.9072 84.0201C76.4191 84.0119 76.9073 84.0041 77.3477 83.9914C80.5919 83.8981 82.2434 83.4992 83.1213 82.6213C83.9943 81.7484 84.3771 80.1461 84.4595 76.9218C84.4701 76.5088 84.4763 76.0558 84.4829 75.5808C84.4983 74.4791 84.5152 73.2594 84.5908 72.1483C84.7025 70.5048 84.9578 68.6508 85.6854 66.9134C86.4054 65.1942 87.5314 63.7015 88.6121 62.4495C89.3494 61.5955 90.2 60.7077 90.9718 59.902C91.3003 59.5591 91.6145 59.2311 91.8997 58.9269C92.9424 57.8146 93.7482 56.8703 94.2964 55.981C94.8309 55.1138 95 54.4892 95 54C95 53.5154 94.8291 52.8805 94.2829 51.9926C93.7258 51.0871 92.9091 50.1251 91.8632 49.0046C91.5641 48.6843 91.2325 48.3371 90.8859 47.9744C90.1256 47.1785 89.2939 46.3079 88.5797 45.4829C87.511 44.2485 86.3855 42.7698 85.6822 41.0789C84.9737 39.3753 84.7323 37.5351 84.6258 35.9153C84.5561 34.8547 84.5373 33.6714 84.5201 32.5928C84.5119 32.0809 84.5041 31.5927 84.4914 31.1523C84.3981 27.9081 83.9992 26.2566 83.1213 25.3787C82.2484 24.5057 80.6461 24.1229 77.4218 24.0405C77.0088 24.0299 76.5558 24.0237 76.0809 24.0171C74.9792 24.0018 73.7595 23.9848 72.6483 23.9092C71.0048 23.7975 69.1508 23.5422 67.4134 22.8146C65.6942 22.0946 64.2015 20.9686 62.9495 19.8879C62.0955 19.1506 61.2076 18.3 60.4019 17.5282C60.0591 17.1997 59.731 16.8855 59.4269 16.6003C58.3146 15.5576 57.3703 14.7518 56.481 14.2036C55.6138 13.6691 54.9892 13.5 54.5 13.5C54.0154 13.5 53.3805 13.6709 52.4926 14.2171C51.5871 14.7742 50.6251 15.5909 49.5046 16.6369C49.1843 16.9359 48.8371 17.2675 48.4743 17.6141C47.6785 18.3744 46.8079 19.2061 45.9829 19.9203ZM48.9558 8.46789C50.4832 7.52832 52.3479 6.75 54.5 6.75C56.6475 6.75 58.5014 7.51961 60.0231 8.45765C61.5226 9.38204 62.8775 10.5829 64.0435 11.6759C64.4679 12.0738 64.8596 12.4494 65.234 12.8084C65.9704 13.5144 66.6399 14.1564 67.3604 14.7784C68.413 15.687 69.2722 16.275 70.0209 16.5885C70.7515 16.8945 71.7452 17.0822 73.1063 17.1748C74.0357 17.238 74.9368 17.25 75.9348 17.2633C76.4557 17.2703 77.0029 17.2776 77.5942 17.2927C80.561 17.3685 84.886 17.5974 87.8943 20.6057C90.8976 23.609 91.1527 27.9693 91.2386 30.9582C91.257 31.597 91.2658 32.1813 91.2742 32.7353C91.2887 33.6977 91.3019 34.5683 91.3613 35.4726C91.4513 36.8414 91.6318 37.8067 91.9146 38.4867C92.2028 39.1794 92.7701 40.0105 93.6828 41.0647C94.2922 41.7686 94.9183 42.4231 95.607 43.1431C95.9827 43.5359 96.377 43.9481 96.7974 44.3985C97.8977 45.5773 99.1034 46.9461 100.032 48.4558C100.972 49.9832 101.75 51.8479 101.75 54C101.75 56.1475 100.98 58.0014 100.042 59.5231C99.118 61.0226 97.9171 62.3775 96.8241 63.5435C96.4262 63.9679 96.0506 64.3596 95.6916 64.734C94.9856 65.4703 94.3436 66.1399 93.7216 66.8604C92.813 67.913 92.225 68.7722 91.9115 69.5209C91.6055 70.2515 91.4178 71.2452 91.3252 72.6063C91.262 73.5357 91.25 74.4368 91.2367 75.4348C91.2297 75.9556 91.2224 76.5029 91.2073 77.0942C91.1315 80.061 90.9026 84.386 87.8943 87.3943C84.891 90.3976 80.5307 90.6527 77.5418 90.7386C76.903 90.757 76.3187 90.7658 75.7647 90.7742C74.8023 90.7887 73.9318 90.8019 73.0274 90.8613C71.6586 90.9513 70.6933 91.1318 70.0133 91.4146C69.3206 91.7028 68.4895 92.2701 67.4353 93.1828C66.7314 93.7922 66.0769 94.4183 65.3569 95.107C64.9641 95.4827 64.5519 95.877 64.1015 96.2974C62.9227 97.3977 61.5539 98.6034 60.0442 99.5321C58.5168 100.472 56.6521 101.25 54.5 101.25C52.3525 101.25 50.4986 100.48 48.9769 99.5423C47.4774 98.618 46.1225 97.4171 44.9565 96.3241C44.5321 95.9262 44.1404 95.5506 43.766 95.1916C43.0297 94.4856 42.3601 93.8436 41.6396 93.2216C40.587 92.313 39.7278 91.725 38.9791 91.4115C38.2485 91.1055 37.2548 90.9178 35.8937 90.8252C34.9644 90.762 34.0632 90.75 33.0652 90.7367C32.5444 90.7297 31.9971 90.7224 31.4058 90.7073C28.439 90.6315 24.114 90.4026 21.1057 87.3943C18.1024 84.391 17.8473 80.0307 17.7614 77.0418C17.743 76.4031 17.7342 75.8187 17.7258 75.2648C17.7113 74.3024 17.6981 73.4318 17.6387 72.5274C17.5487 71.1586 17.3682 70.1933 17.0854 69.5133C16.7973 68.8206 16.2299 67.9895 15.3172 66.9353C14.7078 66.2314 14.0817 65.5769 13.393 64.8569C13.0174 64.4641 12.623 64.0519 12.2026 63.6015C11.1023 62.4227 9.89662 61.0539 8.96789 59.5442C8.02832 58.0168 7.25 56.1521 7.25 54C7.25 51.8525 8.01961 49.9986 8.95765 48.4769C9.88204 46.9774 11.0829 45.6225 12.1759 44.4565C12.5738 44.0321 12.9494 43.6404 13.3084 43.266C14.0144 42.5296 14.6564 41.8601 15.2784 41.1396C16.187 40.087 16.775 39.2278 17.0885 38.4791C17.3945 37.7485 17.5822 36.7548 17.6748 35.3937C17.738 34.4643 17.75 33.5632 17.7633 32.5652C17.7703 32.0443 17.7776 31.4971 17.7927 30.9058C17.8685 27.939 18.0974 23.614 21.1057 20.6057C24.109 17.6024 28.4693 17.3473 31.4582 17.2614C32.0969 17.243 32.6813 17.2342 33.2352 17.2258C34.1976 17.2113 35.0682 17.1981 35.9726 17.1387C37.3414 17.0487 38.3067 16.8682 38.9867 16.5854C39.6794 16.2973 40.5105 15.7299 41.5647 14.8172C42.2686 14.2078 42.9231 13.5817 43.6431 12.893C44.0359 12.5174 44.4481 12.123 44.8985 11.7026C46.0773 10.6023 47.4461 9.39662 48.9558 8.46789Z" fill="#00C48A"/>
<path fill-rule="evenodd" clip-rule="evenodd" d="M75.5045 41.5453C76.7911 42.894 76.7408 45.0304 75.3922 46.317L50.6281 69.942C49.3233 71.1868 47.2704 71.1859 45.9667 69.94L33.6058 58.1275C32.2582 56.8397 32.2097 54.7033 33.4975 53.3558C34.7853 52.0082 36.9217 51.9597 38.2692 53.2475L48.3004 62.8336L70.7328 41.433C72.0815 40.1464 74.2179 40.1967 75.5045 41.5453Z" fill="#00C48A"/>
</svg>
